<mxfile host="app.diagrams.net" modified="2021-12-15T12:22:39.366Z" agent="5.0 (Windows NT 10.0; Win64; x64) AppleWebKit/537.36 (KHTML, like Gecko) Chrome/93.0.4577.63 Safari/537.36" etag="G3p5jhbkVJ7rufXF0fZ5" version="15.8.2" type="github">
  <diagram id="0TczY09dIJsgqQPIqadh" name="Page-1">
    <mxGraphModel dx="1018" dy="593" grid="1" gridSize="10" guides="1" tooltips="1" connect="1" arrows="1" fold="1" page="1" pageScale="1" pageWidth="850" pageHeight="1100" math="0" shadow="0">
      <root>
        <mxCell id="0" />
        <mxCell id="1" parent="0" />
        <mxCell id="RIr1uTYLNQnh8_1ja7Qw-1" value="Authority&lt;br&gt;Entity" style="ellipse;whiteSpace=wrap;html=1;" vertex="1" parent="1">
          <mxGeometry x="130" y="220" width="80" height="50" as="geometry" />
        </mxCell>
        <mxCell id="RIr1uTYLNQnh8_1ja7Qw-4" value="Entity 1" style="ellipse;whiteSpace=wrap;html=1;" vertex="1" parent="1">
          <mxGeometry x="250" y="225" width="70" height="40" as="geometry" />
        </mxCell>
        <mxCell id="RIr1uTYLNQnh8_1ja7Qw-5" value="Entity n" style="ellipse;whiteSpace=wrap;html=1;" vertex="1" parent="1">
          <mxGeometry x="420" y="225" width="70" height="40" as="geometry" />
        </mxCell>
        <mxCell id="RIr1uTYLNQnh8_1ja7Qw-6" value="" style="endArrow=classic;html=1;rounded=0;exitX=1;exitY=0.5;exitDx=0;exitDy=0;entryX=0;entryY=0.5;entryDx=0;entryDy=0;" edge="1" parent="1" source="RIr1uTYLNQnh8_1ja7Qw-1" target="RIr1uTYLNQnh8_1ja7Qw-4">
          <mxGeometry width="50" height="50" relative="1" as="geometry">
            <mxPoint x="400" y="340" as="sourcePoint" />
            <mxPoint x="450" y="290" as="targetPoint" />
          </mxGeometry>
        </mxCell>
        <mxCell id="RIr1uTYLNQnh8_1ja7Qw-7" value="&lt;i&gt;Grant&lt;/i&gt;" style="text;html=1;strokeColor=none;fillColor=none;align=center;verticalAlign=middle;whiteSpace=wrap;rounded=0;" vertex="1" parent="1">
          <mxGeometry x="199" y="220" width="60" height="20" as="geometry" />
        </mxCell>
        <mxCell id="RIr1uTYLNQnh8_1ja7Qw-9" value="" style="endArrow=classic;html=1;rounded=0;exitX=1;exitY=0.5;exitDx=0;exitDy=0;" edge="1" parent="1" source="RIr1uTYLNQnh8_1ja7Qw-4">
          <mxGeometry width="50" height="50" relative="1" as="geometry">
            <mxPoint x="220" y="255" as="sourcePoint" />
            <mxPoint x="360" y="245" as="targetPoint" />
          </mxGeometry>
        </mxCell>
        <mxCell id="RIr1uTYLNQnh8_1ja7Qw-10" value="" style="endArrow=classic;html=1;rounded=0;entryX=0;entryY=0.5;entryDx=0;entryDy=0;" edge="1" parent="1" target="RIr1uTYLNQnh8_1ja7Qw-5">
          <mxGeometry width="50" height="50" relative="1" as="geometry">
            <mxPoint x="380" y="245" as="sourcePoint" />
            <mxPoint x="330" y="255" as="targetPoint" />
          </mxGeometry>
        </mxCell>
        <mxCell id="RIr1uTYLNQnh8_1ja7Qw-12" value="..." style="text;html=1;strokeColor=none;fillColor=none;align=center;verticalAlign=middle;whiteSpace=wrap;rounded=0;" vertex="1" parent="1">
          <mxGeometry x="340" y="227" width="60" height="30" as="geometry" />
        </mxCell>
        <mxCell id="RIr1uTYLNQnh8_1ja7Qw-13" value="&lt;i&gt;Grant&lt;/i&gt;" style="text;html=1;strokeColor=none;fillColor=none;align=center;verticalAlign=middle;whiteSpace=wrap;rounded=0;" vertex="1" parent="1">
          <mxGeometry x="306" y="220" width="60" height="20" as="geometry" />
        </mxCell>
        <mxCell id="RIr1uTYLNQnh8_1ja7Qw-14" value="&lt;i&gt;Grant&lt;/i&gt;" style="text;html=1;strokeColor=none;fillColor=none;align=center;verticalAlign=middle;whiteSpace=wrap;rounded=0;" vertex="1" parent="1">
          <mxGeometry x="366" y="220" width="60" height="20" as="geometry" />
        </mxCell>
        <mxCell id="RIr1uTYLNQnh8_1ja7Qw-15" value="&lt;br&gt;Cert" style="shape=note;whiteSpace=wrap;html=1;backgroundOutline=1;darkOpacity=0.05;size=15;" vertex="1" parent="1">
          <mxGeometry x="214" y="257" width="30" height="40" as="geometry" />
        </mxCell>
        <mxCell id="RIr1uTYLNQnh8_1ja7Qw-16" value="&lt;br&gt;Cert" style="shape=note;whiteSpace=wrap;html=1;backgroundOutline=1;darkOpacity=0.05;size=15;" vertex="1" parent="1">
          <mxGeometry x="321" y="257" width="30" height="40" as="geometry" />
        </mxCell>
        <mxCell id="RIr1uTYLNQnh8_1ja7Qw-17" value="&lt;br&gt;Cert" style="shape=note;whiteSpace=wrap;html=1;backgroundOutline=1;darkOpacity=0.05;size=15;" vertex="1" parent="1">
          <mxGeometry x="390" y="257" width="30" height="40" as="geometry" />
        </mxCell>
      </root>
    </mxGraphModel>
  </diagram>
</mxfile>
